<mxfile host="app.diagrams.net" modified="2023-06-29T03:55:33.197Z" agent="Mozilla/5.0 (Windows NT 10.0; Win64; x64) AppleWebKit/537.36 (KHTML, like Gecko) Chrome/115.0.0.0 Safari/537.36 Edg/115.0.1901.151" version="21.5.2" etag="L-N9QaJGcvEIiSy8eMcw" type="github">
  <diagram name="Page-1" id="J52m-9WOxINxrAVVr7qC">
    <mxGraphModel>
      <root>
        <mxCell id="0" />
        <mxCell id="1" parent="0" />
      </root>
    </mxGraphModel>
  </diagram>
</mxfile>
